<?xml version="1.0" standalone="no"?>
<!DOCTYPE svg PUBLIC "-//W3C//DTD SVG 20010904//EN"
 "http://www.w3.org/TR/2001/REC-SVG-20010904/DTD/svg10.dtd">
<svg version="1.0" xmlns="http://www.w3.org/2000/svg"
 width="300.000000pt" height="300.000000pt" viewBox="0 0 300.000000 300.000000"
 preserveAspectRatio="xMidYMid meet">
<metadata>
Created by potrace 1.11, written by Peter Selinger 2001-2013
</metadata>
<g transform="translate(0.000000,300.000000) scale(0.100000,-0.100000)"
fill="#000000" stroke="none">
<path d="M1409 2956 c-2 -2 -24 -6 -49 -9 -152 -18 -297 -80 -440 -185 -86
-63 -117 -95 -167 -169 -68 -103 -120 -226 -139 -333 -11 -65 -6 -215 10 -282
65 -279 289 -516 569 -604 53 -16 57 -20 57 -48 0 -39 -57 -152 -128 -253
-103 -147 -176 -248 -183 -253 -22 -16 -184 -271 -217 -341 -54 -115 -67 -182
-49 -270 3 -18 34 -67 53 -87 21 -21 111 -62 172 -79 87 -25 374 -24 467 1
360 95 690 440 891 931 165 403 218 839 149 1215 -8 41 -16 88 -19 103 -8 46
-37 128 -64 182 -112 225 -322 388 -587 456 -71 18 -313 37 -326 25z"/>
</g>
</svg>
